<svg xmlns="http://www.w3.org/2000/svg" xmlns:xlink="http://www.w3.org/1999/xlink" version="1.1" x="0px" y="0px" viewBox="0 0 90 90" enable-background="new 0 0 90 90" xml:space="preserve"><g><path d="M17.707,31.797l53.103,0.161L44.118,77.866L17.707,31.797z M60.842,37.672l-33.204-0.1l16.515,28.807L60.842,37.672z"></path></g><g><path d="M63.403,30.075h-7.659c0-6.334-5.15-11.488-11.485-11.488s-11.488,5.154-11.488,11.488h-7.659   c0-10.558,8.588-19.146,19.147-19.146C54.812,10.928,63.403,19.517,63.403,30.075z"></path></g><path d="M52.562,24.506c0,1.796-1.453,3.252-3.252,3.252c-1.793,0-3.252-1.456-3.252-3.252"></path><path d="M43.567,24.315c0,1.796-1.456,3.252-3.252,3.252c-1.798,0-3.255-1.456-3.255-3.252"></path><g><path d="M61.299,50.188l1.88-3.059c2.527,1.553,5.85,0.756,7.406-1.775c1.551-2.53,0.757-5.852-1.773-7.405l1.875-3.06   c4.219,2.588,5.543,8.125,2.959,12.345C71.056,51.451,65.519,52.778,61.299,50.188z"></path></g><g><rect x="64.833" y="49.954" width="4.594" height="13.231"></rect></g><g><path d="M63.474,70.838c-0.973-0.973-1.512-2.273-1.512-3.65c0-2.85,2.318-5.168,5.168-5.168c2.848,0,5.167,2.318,5.167,5.168   c0,1.33-0.509,2.596-1.423,3.561l-2.777-2.641c0.24-0.249,0.369-0.575,0.369-0.92c0-0.738-0.599-1.339-1.336-1.339   c-0.738,0-1.339,0.601-1.339,1.339c0,0.357,0.138,0.691,0.39,0.943L63.474,70.838z"></path></g><g><path d="M28.632,52.679l-1.877-3.059c-2.529,1.553-5.852,0.756-7.406-1.775c-1.551-2.531-0.756-5.852,1.774-7.406l-1.877-3.06   c-4.217,2.589-5.543,8.127-2.956,12.344C18.878,53.938,24.415,55.269,28.632,52.679z"></path></g><g><rect x="20.507" y="52.439" width="4.595" height="10.746"></rect></g><g><path d="M26.458,70.838c0.976-0.973,1.514-2.273,1.514-3.65c0-2.85-2.319-5.168-5.167-5.168c-2.849,0-5.167,2.318-5.167,5.168   c0,1.33,0.505,2.596,1.423,3.561l2.774-2.641c-0.237-0.249-0.368-0.575-0.368-0.92c0-0.738,0.6-1.339,1.338-1.339   s1.338,0.601,1.338,1.339c0,0.357-0.14,0.691-0.393,0.943L26.458,70.838z"></path></g></svg>