<svg xmlns="http://www.w3.org/2000/svg" xmlns:xlink="http://www.w3.org/1999/xlink" version="1.0" x="0px" y="0px" viewBox="0 0 32 40" enable-background="new 0 0 32 32" xml:space="preserve"><path d="M20.001,28c0,2.211-1.793,4-4,4c-2.211,0-4-1.789-4-4c0-2.207,1.789-4,4-4C18.208,24,20.001,25.793,20.001,28z M31.4,4.625  c-4.423-2.914-9.708-4.625-15.399-4.625S5.021,1.71,0.603,4.625c0,0-1.164,1.031-0.258,2.562s2.219,0.926,2.219,0.926  C6.399,5.519,11.021,4,16.001,4c4.977,0,9.602,1.52,13.438,4.113c0,0,1.188,0.574,2.188-0.957C32.58,5.699,31.4,4.625,31.4,4.625z   M27.462,11.625C24.216,9.347,20.267,8,16.001,8c-4.27,0-8.215,1.348-11.461,3.625c0,0-1.32,1.062-0.352,2.562  s2.324,0.949,2.324,0.949C9.173,13.175,12.446,12,16.001,12s6.828,1.176,9.484,3.137c0,0,1.766,0.676,2.516-0.855  C28.752,12.75,27.462,11.625,27.462,11.625z M23.509,18.648C21.454,16.996,18.845,16,16.001,16s-5.453,0.996-7.512,2.649  c0,0-1.613,1.133-0.457,2.758s2.465,0.812,2.465,0.812C11.931,20.852,13.864,20,16.001,20s4.066,0.852,5.504,2.219  c0,0,1.621,0.5,2.434-1S23.509,18.648,23.509,18.648z"/><text x="0" y="47" fill="#000000" font-size="5px" font-weight="bold" font-family="'Helvetica Neue', Helvetica, Arial-Unicode, Arial, Sans-serif">Created by Zlatko Najdenovski</text><text x="0" y="52" fill="#000000" font-size="5px" font-weight="bold" font-family="'Helvetica Neue', Helvetica, Arial-Unicode, Arial, Sans-serif">from the Noun Project</text></svg>